<svg xmlns="http://www.w3.org/2000/svg" version="1.1" xmlns:xlink="http://www.w3.org/1999/xlink" xmlns:svgjs="http://svgjs.com/svgjs" width="480" height="315" preserveAspectRatio="none" viewBox="0 0 480 315"><g mask="url(&quot;#SvgjsMask1046&quot;)" fill="none"><rect width="480" height="315" x="0" y="0" fill="rgba(32, 178, 170, 1)"></rect><path d="M0,218.347C40.241,218.073,72.952,187.174,103.321,160.771C130.354,137.268,145.604,105.53,164.655,75.195C186.921,39.741,231.394,9.018,224.57,-32.288C217.72,-73.755,163.643,-86.448,133.169,-115.392C106.407,-140.811,91.904,-181.989,56.386,-192.031C20.915,-202.06,-15.398,-182.04,-49.006,-166.898C-78.9,-153.429,-105.107,-134.46,-126.514,-109.625C-147.878,-84.841,-163.716,-56.43,-171.601,-24.673C-180.118,9.626,-185.383,45.941,-173.396,79.187C-160.929,113.765,-132.896,139.177,-104.229,162.184C-72.813,187.397,-40.281,218.621,0,218.347" fill="#1a8e88"></path><path d="M480 475.807C515.577 479.832 553.338 495.028 585.197 478.69 617.5409999999999 462.10400000000004 626.869 421.73699999999997 645.8679999999999 390.749 667.825 354.935 705.51 324.597 705.427 282.588 705.342 239.679 674.893 202.849 645.434 171.65 616.833 141.36 582.336 110.30699999999999 540.732 108.16499999999999 500.517 106.094 473.137 148.723 434.723 160.8 397.43399999999997 172.523 349.919 150.925 321.015 177.239 292.28499999999997 203.39499999999998 298.515 249.689 294.622 288.347 290.89 325.408 280.571 365.27 298.81100000000004 397.746 316.753 429.69100000000003 355.416 442.001 389.065 456.498 418.112 469.012 448.573 472.251 480 475.807" fill="#26d6cc"></path></g><defs><mask id="SvgjsMask1046"><rect width="480" height="315" fill="#ffffff"></rect></mask></defs></svg>